Coordinates
version=1
nRows=5
nColumns=40
inDegrees=yes

Units are S.I. units (second, meters, Newtons, ...)
If the header above contains a line with 'inDegrees', this indicates whether rotational values are in degrees (yes) or radians (no).

endheader
time	pelvis_tilt	pelvis_list	pelvis_rotation	pelvis_tx	pelvis_ty	pelvis_tz	hip_flexion_r	hip_adduction_r	hip_rotation_r	knee_angle_r	knee_angle_r_beta	ankle_angle_r	subtalar_angle_r	mtp_angle_r	hip_flexion_l	hip_adduction_l	hip_rotation_l	knee_angle_l	knee_angle_l_beta	ankle_angle_l	subtalar_angle_l	mtp_angle_l	lumbar_extension	lumbar_bending	lumbar_rotation	arm_flex_r	arm_add_r	arm_rot_r	elbow_flex_r	pro_sup_r	wrist_flex_r	wrist_dev_r	arm_flex_l	arm_add_l	arm_rot_l	elbow_flex_l	pro_sup_l	wrist_flex_l	wrist_dev_l
      0.66500000	    -19.01868910	      0.68390821	     -3.87576631	      0.16310882	      0.72245229	     -1.18841695	     63.15655118	    -35.14534344	    -10.24794445	     70.37141899	      1.22821296	     15.85240669	      2.58478529	      0.00000000	     60.07393805	    -42.66466643	    -18.17952345	     71.05905426	      1.24021446	     16.66333682	     13.56885366	      0.00000000	     -6.11651129	     -1.06517654	      1.80647709	     44.92620392	    -15.03962368	     44.92620392	     75.00070175	     44.99999813	      0.00000000	      0.00000000	     44.92620392	    -15.03962368	     44.92620392	     75.00070175	     44.99999813	      0.00000000	      0.00000000
      0.67000000	    -18.90633742	      0.70061880	     -3.87838170	      0.16276711	      0.71989895	     -1.18841376	     63.51097909	    -35.29811238	     -9.96956454	     70.97059081	      1.23867048	     16.13782913	      2.64990158	      0.00000000	     60.38914944	    -42.86600560	    -17.92588687	     71.64850890	      1.25050238	     16.95855840	     13.84451585	      0.00000000	     -6.34394413	     -1.09962643	      1.81049210	     44.92655184	    -15.03932886	     44.92655184	     75.00069485	     44.99999819	      0.00000000	      0.00000000	     44.92655184	    -15.03932886	     44.92655184	     75.00069485	     44.99999819	      0.00000000	      0.00000000
      0.67500000	    -19.02650829	      0.75775232	     -3.89598495	      0.16225420	      0.71664405	     -1.18833757	     64.23855830	    -35.44352771	     -9.56026511	     71.66286004	      1.25075286	     16.34610248	      2.77190872	      0.00000000	     61.04246775	    -43.05195929	    -17.58289024	     72.32117760	      1.26224267	     17.12691833	     13.92167541	      0.00000000	     -6.25528434	     -1.17642399	      1.85388192	     44.92696888	    -15.03897302	     44.92696888	     75.00068637	     44.99999826	      0.00000000	      0.00000000	     44.92696888	    -15.03897302	     44.92696888	     75.00068637	     44.99999826	      0.00000000	      0.00000000
      0.68000000	    -18.78599492	      0.75048410	     -3.90214414	      0.16198616	      0.71455906	     -1.18834919	     64.39402220	    -35.57712920	     -9.34568573	     72.18808828	      1.25991982	     16.43588977	      2.62594734	      0.00000000	     61.19407906	    -43.26018398	    -17.39391530	     72.85969335	      1.27164154	     17.23607121	     13.81118101	      0.00000000	     -6.69267087	     -1.19751998	      1.83496399	     44.92724151	    -15.03874488	     44.92724151	     75.00068118	     44.99999830	      0.00000000	      0.00000000	     44.92724151	    -15.03874488	     44.92724151	     75.00068118	     44.99999830	      0.00000000	      0.00000000
      0.68500000	    -19.01636083	      0.81639229	     -3.94898132	      0.16150403	      0.71087818	     -1.18824080	     65.28733511	    -35.71074904	     -8.90717760	     72.92188585	      1.27272700	     16.82395641	      2.92697869	      0.00000000	     61.97522677	    -43.48951032	    -17.01852402	     73.58613008	      1.28432025	     17.57917840	     14.25360505	      0.00000000	     -6.42405097	     -1.28119552	      1.88570747	     44.92762174	    -15.03842284	     44.92762174	     75.00067364	     44.99999837	      0.00000000	      0.00000000	     44.92762174	    -15.03842284	     44.92762174	     75.00067364	     44.99999837	      0.00000000	      0.00000000
